<?xml version="1.0" encoding="UTF-8"?>
<svg id="_레이어_1" data-name="레이어_1" xmlns="http://www.w3.org/2000/svg" version="1.1" viewBox="0 0 320.8 178.2">
  <!-- Generator: Adobe Illustrator 29.6.0, SVG Export Plug-In . SVG Version: 2.1.1 Build 207)  -->
  <path d="M79.2,79.2h-29.7v19.8h29.7v29.7c0,16.4-13.3,29.7-29.7,29.7s-29.7-13.3-29.7-29.7V49.5c0-16.4,13.3-29.7,29.7-29.7s24,8.3,28,19.8h20.5C93.4,17,73.4,0,49.5,0S0,22.2,0,49.5v79.2c0,27.3,22.2,49.5,49.5,49.5s21.4-3.7,29.7-10v10h19.8v-99h-19.8Z"/>
  <path d="M190.1,79.2h-29.7v19.8h29.7v29.7c0,16.4-13.3,29.7-29.7,29.7s-29.7-13.3-29.7-29.7V49.5c0-16.4,13.3-29.7,29.7-29.7s24,8.3,28,19.8h20.5C204.3,17,184.3,0,160.4,0s-49.5,22.2-49.5,49.5v79.2c0,27.3,22.2,49.5,49.5,49.5s21.4-3.7,29.7-10v10h19.8v-99h-19.8Z"/>
  <path d="M320.8,49.5c0-27.3-22.2-49.5-49.5-49.5s-49.5,22.2-49.5,49.5v128.7h19.8v-79.2h46.2l13.2,79.2h19.8l-15.5-92.8c9.5-9,15.5-21.7,15.5-35.9ZM271.3,19.8c16.4,0,29.7,13.3,29.7,29.7s-13.3,29.7-29.7,29.7-29.7-13.3-29.7-29.7,13.3-29.7,29.7-29.7Z"/>
</svg>